<svg preserveAspectRatio="none" width="100%" height="100%" overflow="visible" style="display: block;" viewBox="0 0 30 30" fill="none" xmlns="http://www.w3.org/2000/svg">
<g id="clarity:star-line" clip-path="url(#clip0_0_23)">
<path id="Vector" d="M22.6584 28.3333C22.2901 28.333 21.9303 28.2227 21.625 28.0167L15.4084 23.85C15.3777 23.8289 15.3414 23.8175 15.3042 23.8175C15.267 23.8175 15.2306 23.8289 15.2 23.85L8.98335 28.0167C8.67118 28.2251 8.30298 28.3337 7.92766 28.3279C7.55234 28.3221 7.18765 28.2023 6.88202 27.9844C6.57639 27.7665 6.34428 27.4608 6.21651 27.1078C6.08874 26.7549 6.07136 26.3714 6.16668 26.0083L8.20835 18.8083C8.218 18.7721 8.21683 18.7339 8.20498 18.6983C8.19314 18.6628 8.17113 18.6315 8.14168 18.6083L2.25835 13.9833C1.94863 13.7526 1.71889 13.4307 1.60134 13.0628C1.48378 12.695 1.48432 12.2995 1.60286 11.9319C1.7214 11.5644 1.95201 11.2431 2.26235 11.0132C2.57268 10.7833 2.94719 10.6563 3.33335 10.65L10.8334 10.3667C10.8702 10.3641 10.9056 10.351 10.9352 10.3288C10.9647 10.3066 10.9872 10.2764 11 10.2417L13.5834 3.21667C13.7136 2.86054 13.9501 2.55302 14.2608 2.33575C14.5716 2.11848 14.9417 2.00196 15.3209 2.00196C15.7 2.00196 16.0701 2.11848 16.3809 2.33575C16.6916 2.55302 16.9281 2.86054 17.0584 3.21667L19.6417 10.2417C19.6545 10.2764 19.677 10.3066 19.7066 10.3288C19.7361 10.351 19.7715 10.3641 19.8084 10.3667L27.3084 10.65C27.6945 10.6563 28.069 10.7833 28.3794 11.0132C28.6897 11.2431 28.9203 11.5644 29.0388 11.9319C29.1574 12.2995 29.1579 12.695 29.0404 13.0628C28.9228 13.4307 28.6931 13.7526 28.3834 13.9833L22.5 18.6083C22.4697 18.6308 22.447 18.662 22.4351 18.6978C22.4231 18.7336 22.4225 18.7722 22.4334 18.8083L24.475 26.0083C24.5467 26.2845 24.5538 26.5735 24.4958 26.8528C24.4378 27.1322 24.3163 27.3944 24.1406 27.6193C23.9649 27.8441 23.7398 28.0254 23.4828 28.1493C23.2258 28.2731 22.9437 28.3361 22.6584 28.3333V28.3333ZM15.3084 22.15C15.6774 22.1613 16.0345 22.2832 16.3334 22.5L22.55 26.6667C22.5815 26.6906 22.6199 26.7037 22.6595 26.704C22.6991 26.7044 22.7377 26.6919 22.7696 26.6684C22.8014 26.645 22.8249 26.6118 22.8364 26.574C22.8479 26.5361 22.8468 26.4955 22.8334 26.4583L20.7917 19.2583C20.6912 18.9051 20.6986 18.53 20.813 18.181C20.9273 17.8321 21.1433 17.5253 21.4334 17.3L27.3167 12.675C27.3488 12.6525 27.3728 12.6202 27.3852 12.583C27.3976 12.5458 27.3978 12.5056 27.3857 12.4683C27.3735 12.431 27.3498 12.3986 27.3179 12.3758C27.2859 12.353 27.2476 12.341 27.2084 12.3417L19.7084 12.0583C19.3411 12.044 18.9865 11.9207 18.6896 11.704C18.3928 11.4873 18.1672 11.1871 18.0417 10.8417L15.4584 3.81667C15.4467 3.77937 15.4234 3.74677 15.392 3.72362C15.3605 3.70047 15.3224 3.68798 15.2834 3.68798C15.2443 3.68798 15.2062 3.70047 15.1747 3.72362C15.1433 3.74677 15.12 3.77937 15.1084 3.81667L12.55 10.8333C12.4245 11.1787 12.1989 11.4789 11.9021 11.6956C11.6052 11.9123 11.2506 12.0357 10.8834 12.05L3.38335 12.3333C3.34414 12.3327 3.30575 12.3447 3.27384 12.3675C3.24192 12.3903 3.21816 12.4227 3.20604 12.46C3.19391 12.4973 3.19407 12.5375 3.20649 12.5747C3.2189 12.6119 3.24292 12.6441 3.27502 12.6667L9.16668 17.3C9.4558 17.526 9.67118 17.8328 9.78544 18.1816C9.8997 18.5303 9.90768 18.9051 9.80835 19.2583L7.77502 26.4583C7.76288 26.4944 7.76282 26.5334 7.77485 26.5695C7.78688 26.6056 7.81034 26.6368 7.84168 26.6583C7.87187 26.6842 7.91029 26.6983 7.95002 26.6983C7.98974 26.6983 8.02816 26.6842 8.05835 26.6583L14.275 22.4917C14.5788 22.2901 14.9354 22.1829 15.3 22.1833L15.3084 22.15Z" fill="var(--fill-0, white)"/>
<g id="Vector_2">
</g>
</g>
<defs>
<clipPath id="clip0_0_23">
<rect width="30" height="30" fill="white"/>
</clipPath>
</defs>
</svg>
