<svg preserveAspectRatio="none" width="100%" height="100%" overflow="visible" style="display: block;" viewBox="0 0 45 45" fill="none" xmlns="http://www.w3.org/2000/svg">
<g id="ep:close-bold">
<path id="Vector" d="M8.57805 8.57813C9.10547 8.05087 9.82071 7.75467 10.5665 7.75467C11.3123 7.75467 12.0275 8.05087 12.5549 8.57813L22.4999 18.5231L32.4449 8.57813C32.9754 8.06581 33.6858 7.78233 34.4232 7.78874C35.1607 7.79515 35.8661 8.09093 36.3875 8.61239C36.909 9.13385 37.2048 9.83926 37.2112 10.5767C37.2176 11.3141 36.9341 12.0246 36.4218 12.555L26.4768 22.5L36.4218 32.445C36.9341 32.9755 37.2176 33.6859 37.2112 34.4233C37.2048 35.1608 36.909 35.8662 36.3875 36.3876C35.8661 36.9091 35.1607 37.2049 34.4232 37.2113C33.6858 37.2177 32.9754 36.9342 32.4449 36.4219L22.4999 26.4769L12.5549 36.4219C12.0245 36.9342 11.314 37.2177 10.5766 37.2113C9.83918 37.2049 9.13377 36.9091 8.61231 36.3876C8.09085 35.8662 7.79506 35.1608 7.78866 34.4233C7.78225 33.6859 8.06573 32.9755 8.57805 32.445L18.5231 22.5L8.57805 12.555C8.05079 12.0276 7.75459 11.3123 7.75459 10.5666C7.75459 9.8208 8.05079 9.10556 8.57805 8.57813Z" fill="var(--fill-0, white)"/>
</g>
</svg>
