<svg width="310" height="182" viewBox="0 0 310 182" fill="none" xmlns="http://www.w3.org/2000/svg">
<path d="M262.853 97.1227C253.085 97.1227 246.705 90.6635 246.705 81.1323C246.705 71.7589 253.164 65.3787 262.853 65.3787H288.374V97.1227H262.853ZM309.721 46.9467H260.332C239.38 46.9467 225.044 60.6523 225.044 80.3445C225.044 95.9408 233.945 107.756 248.044 111.852L221.105 152.891H244.972L269.233 115.555H288.296V152.891H309.721V46.9467ZM42.5355 74.752V42.7717H84.0469V133.435H31.9803C37.5728 123.668 42.5355 101.061 42.5355 74.752ZM106.023 22.2917H21.3467V75.6187C21.3467 102.794 16.5413 123.983 10.1611 133.514H0V181.878H20.9525V153.285H100.195V181.878H121.147V133.514H106.023V22.2917ZM169.905 134.932L168.015 133.671L192.748 46.9467H142.73L137.373 66.2448L166.439 66.0085L147.535 132.175C144.227 144.227 152.34 155.412 165.573 155.412C169.748 155.412 173.844 154.388 178.412 151.474L212.441 128.473L202.043 113.113L169.905 134.932ZM184.399 27.0181C194.954 27.0181 199.365 23.0795 199.365 13.7061C199.365 3.93866 194.796 0 184.399 0C174.001 0 169.433 3.93866 169.433 13.7061C169.511 23.0795 173.844 27.0181 184.399 27.0181Z" fill="white"/>
</svg>
